<?xml version="1.0" encoding="UTF-8" standalone="no"?>
<svg xmlns:dc="http://purl.org/dc/elements/1.1/" xmlns:cc="http://creativecommons.org/ns#" xmlns:rdf="http://www.w3.org/1999/02/22-rdf-syntax-ns#" xmlns:svg="http://www.w3.org/2000/svg" xmlns="http://www.w3.org/2000/svg" xmlns:sodipodi="http://sodipodi.sourceforge.net/DTD/sodipodi-0.dtd" xmlns:inkscape="http://www.inkscape.org/namespaces/inkscape" viewBox="0 0 568.46404 46.980667" height="46.980667" width="568.46405" xml:space="preserve" id="svg2" version="1.1" sodipodi:docname="MICDE-acronym.svg" inkscape:export-filename="C:\Users\vancho\Documents\Logos\MICDE-acronym.png" inkscape:export-xdpi="400" inkscape:export-ydpi="400" inkscape:version="0.92.3 (2405546, 2018-03-11)"><metadata id="metadata8"/><defs id="defs6"/><g id="g12" transform="matrix(0.13333333,0,0,-0.13333333,0,46.980665)"><path d="m 587.094,2.91016 h -5 V 349.473 h 5 V 2.91016" style="fill:#0e2b58;fill-opacity:1;fill-rule:nonzero;stroke:none" id="path14" inkscape:connector-curvature="0"/><path d="M 242.324,63.3789 143.066,199.023 v -98.671 h 39.461 V 2.91016 H 0 V 100.352 H 36.9922 V 252.051 H 0 v 97.422 h 143.391 l 98.933,-136.621 98.969,136.621 H 484.645 V 252.051 H 447.641 V 100.352 h 37.004 V 2.91016 H 302.133 V 100.352 h 39.445 v 98.671 L 242.324,63.3789" style="fill:#fccb06;fill-opacity:1;fill-rule:nonzero;stroke:none" id="path16" inkscape:connector-curvature="0"/><path d="m 803.891,349.473 h 48.964 V 2.88281 H 825.016 V 322.59 h -0.957 L 787.574,2.88281 H 748.207 L 711.723,322.59 h -0.957 V 2.88281 h -27.84 V 349.473 h 48.965 L 767.418,39.3672 h 0.957 l 35.516,310.1058" style="fill:#0e2b58;fill-opacity:1;fill-rule:nonzero;stroke:none" id="path18" inkscape:connector-curvature="0"/><path d="m 898.922,349.473 h 31.68 V 2.88281 h -31.68 V 349.473" style="fill:#0e2b58;fill-opacity:1;fill-rule:nonzero;stroke:none" id="path20" inkscape:connector-curvature="0"/><path d="m 1046.76,303.391 c 0,14.875 -5.28,22.078 -17.76,22.078 -12.48,0 -17.76,-7.203 -17.76,-22.078 V 48.9648 c 0,-14.8828 5.28,-22.0781 17.76,-22.0781 12.48,0 17.76,7.1953 17.76,22.0781 v 48.4883 h 31.68 V 48 c 0,-29.2773 -16.32,-48 -49.44,-48 -33.125,0 -49.445,18.7227 -49.445,48 v 256.348 c 0,29.281 16.32,48.007 49.445,48.007 33.12,0 49.44,-18.726 49.44,-48.007 v -45.602 h -31.68 v 44.645" style="fill:#0e2b58;fill-opacity:1;fill-rule:nonzero;stroke:none" id="path22" inkscape:connector-curvature="0"/><path d="m 1162.92,29.7656 c 21.12,0 27.84,6.7188 27.84,26.8867 V 295.707 c 0,20.164 -6.72,26.883 -27.84,26.883 h -16.8 V 29.7656 Z m -48.49,319.7074 h 54.25 c 43.2,0 53.77,-22.086 53.77,-56.168 V 59.0547 c 0,-34.0938 -10.57,-56.17189 -53.77,-56.17189 h -54.25 V 349.473" style="fill:#0e2b58;fill-opacity:1;fill-rule:nonzero;stroke:none" id="path24" inkscape:connector-curvature="0"/><path d="m 1272.84,349.473 h 84 V 322.59 h -52.32 V 196.34 h 49.93 v -26.887 h -49.93 V 29.7656 h 52.32 V 2.88281 h -84 V 349.473" style="fill:#0e2b58;fill-opacity:1;fill-rule:nonzero;stroke:none" id="path26" inkscape:connector-curvature="0"/><path d="m 1434.55,240.934 h -12.9 V 349.23 h 22.34 l 27.3,-90.898 h 0.3 l 27.6,90.898 h 22.8 V 240.934 h -13.8 v 96.293 h -0.3 l -30.3,-96.293 h -13.05 l -29.7,96.293 h -0.29 v -96.293" style="fill:#0e2b58;fill-opacity:1;fill-rule:nonzero;stroke:none" id="path28" inkscape:connector-curvature="0"/><path d="m 1561.67,240.934 h -13.8 V 349.23 h 13.8 V 240.934" style="fill:#0e2b58;fill-opacity:1;fill-rule:nonzero;stroke:none" id="path30" inkscape:connector-curvature="0"/><path d="m 1635.09,319.379 c 0.15,6.148 -0.3,12.301 -3.15,15.75 -2.85,3.449 -9.3,4.652 -12.15,4.652 -11.4,0 -15.9,-6.898 -16.35,-8.402 -0.45,-1.199 -3.15,-3.899 -3.15,-22.496 v -28.949 c 0,-26.551 8.7,-29.7 19.35,-29.7 4.2,0 16.95,1.5 17.1,22.649 h 14.25 c 0.6,-34.199 -23.55,-34.199 -30.6,-34.199 -13.5,0 -34.2,0.902 -34.2,42.898 v 30.598 c 0,30.597 13.5,39.3 34.8,39.3 21.45,0 29.7,-11.097 28.35,-32.101 h -14.25" style="fill:#0e2b58;fill-opacity:1;fill-rule:nonzero;stroke:none" id="path32" inkscape:connector-curvature="0"/><path d="M 1672.92,240.934 V 349.23 h 13.8 v -46.796 h 37.95 v 46.796 h 13.8 V 240.934 h -13.8 v 49.496 h -37.95 v -49.496 h -13.8" style="fill:#0e2b58;fill-opacity:1;fill-rule:nonzero;stroke:none" id="path34" inkscape:connector-curvature="0"/><path d="m 1778.37,240.934 h -13.79 V 349.23 h 13.79 V 240.934" style="fill:#0e2b58;fill-opacity:1;fill-rule:nonzero;stroke:none" id="path36" inkscape:connector-curvature="0"/><path d="m 1856.05,320.277 c 0,12.75 -5.24,19.649 -19.19,19.649 -4.36,0 -19.96,-0.746 -19.96,-23.399 v -36.593 c 0,-23.704 6.9,-29.7 19.96,-29.7 9.89,0 16.49,2.7 19.35,4.801 v 32.399 h -19.96 V 299.43 H 1870 v -52.649 c -8.85,-4.797 -19.19,-8.097 -33.14,-8.097 -22.95,0 -34.05,11.847 -34.05,41.847 v 35.547 c 0,21.602 11.1,35.402 34.05,35.402 23.39,0 34.49,-8.55 33.59,-31.203 h -14.4" style="fill:#0e2b58;fill-opacity:1;fill-rule:nonzero;stroke:none" id="path38" inkscape:connector-curvature="0"/><path d="m 1931.85,336.48 h -0.3 l -16.95,-57.75 h 34.65 z m -8.4,12.75 H 1941 l 35.25,-108.296 h -15.45 l -7.8,25.8 h -41.85 l -8.1,-25.8 h -13.95 l 34.35,108.296" style="fill:#0e2b58;fill-opacity:1;fill-rule:nonzero;stroke:none" id="path40" inkscape:connector-curvature="0"/><path d="M 2069.75,349.23 V 240.934 h -18.91 l -42.74,93.894 h -0.3 v -93.894 h -12.3 V 349.23 h 19.5 l 42.14,-92.695 h 0.31 v 92.695 h 12.3" style="fill:#0e2b58;fill-opacity:1;fill-rule:nonzero;stroke:none" id="path42" inkscape:connector-curvature="0"/><path d="m 2143.69,240.934 h -13.8 V 349.23 h 13.8 V 240.934" style="fill:#0e2b58;fill-opacity:1;fill-rule:nonzero;stroke:none" id="path44" inkscape:connector-curvature="0"/><path d="M 2243.82,349.23 V 240.934 h -18.9 l -42.76,93.894 h -0.29 v -93.894 h -12.3 V 349.23 h 19.5 l 42.15,-92.695 h 0.3 v 92.695 h 12.3" style="fill:#0e2b58;fill-opacity:1;fill-rule:nonzero;stroke:none" id="path46" inkscape:connector-curvature="0"/><path d="m 2280.15,273.184 v -3.153 c 0,-14.699 9.3,-19.347 18.15,-19.347 10.95,0 19.35,4.648 19.35,17.55 0,23.996 -48.6,21.297 -48.6,53.848 0,19.199 13.64,29.398 31.79,29.398 19.8,0 30.91,-9.601 30,-31.652 h -14.4 c 0.16,11.852 -3.59,19.649 -16.64,19.649 -8.25,0 -16.65,-4.2 -16.65,-15.899 0,-23.848 48.6,-20.398 48.6,-54.746 0,-22.801 -15.76,-30.148 -33.61,-30.148 -31.94,-0.301 -31.94,24.148 -31.64,34.5 h 13.65" style="fill:#0e2b58;fill-opacity:1;fill-rule:nonzero;stroke:none" id="path48" inkscape:connector-curvature="0"/><path d="m 2418.35,349.23 v -12.003 h -28.49 v -96.293 h -13.81 v 96.293 h -28.5 v 12.003 h 70.8" style="fill:#0e2b58;fill-opacity:1;fill-rule:nonzero;stroke:none" id="path50" inkscape:connector-curvature="0"/><path d="m 2451.76,240.934 h -13.8 V 349.23 h 13.8 V 240.934" style="fill:#0e2b58;fill-opacity:1;fill-rule:nonzero;stroke:none" id="path52" inkscape:connector-curvature="0"/><path d="m 2542.03,349.23 v -12.003 h -28.5 v -96.293 h -13.8 v 96.293 h -28.5 v 12.003 h 70.8" style="fill:#0e2b58;fill-opacity:1;fill-rule:nonzero;stroke:none" id="path54" inkscape:connector-curvature="0"/><path d="m 2560.52,349.23 h 13.81 v -69.296 c 0,-23.704 7.2,-29.7 20.25,-29.7 13.05,0 20.24,5.996 20.24,29.7 v 69.296 h 13.81 v -68.699 c 0,-30 -11.11,-41.847 -34.05,-41.847 -22.95,0 -34.06,11.847 -34.06,41.847 v 68.699" style="fill:#0e2b58;fill-opacity:1;fill-rule:nonzero;stroke:none" id="path56" inkscape:connector-curvature="0"/><path d="m 2717.99,349.23 v -12.003 h -28.49 v -96.293 h -13.8 v 96.293 h -28.5 v 12.003 h 70.79" style="fill:#0e2b58;fill-opacity:1;fill-rule:nonzero;stroke:none" id="path58" inkscape:connector-curvature="0"/><path d="M 2736.71,240.934 V 349.23 h 55.8 v -12.003 h -42 v -34.793 h 39 V 290.43 h -39 v -37.496 h 42.9 v -12 h -56.7" style="fill:#0e2b58;fill-opacity:1;fill-rule:nonzero;stroke:none" id="path60" inkscape:connector-curvature="0"/><path d="M 2843.96,240.934 V 349.23 h 53.69 v -12.003 h -39.89 v -34.793 h 37.8 V 290.43 h -37.8 v -49.496 h -13.8" style="fill:#0e2b58;fill-opacity:1;fill-rule:nonzero;stroke:none" id="path62" inkscape:connector-curvature="0"/><path d="m 2968.88,279.934 v 36.593 c 0,22.653 -15.6,23.399 -19.96,23.399 -4.34,0 -19.94,-0.746 -19.94,-23.399 v -36.593 c 0,-23.704 6.89,-29.7 19.94,-29.7 13.06,0 19.96,5.996 19.96,29.7 z m -54,0.597 v 35.547 c 0,21.602 11.09,35.402 34.04,35.402 22.95,0 34.05,-13.8 34.05,-35.402 v -35.547 c 0,-30 -11.1,-41.847 -34.05,-41.847 -22.95,0 -34.04,11.847 -34.04,41.847" style="fill:#0e2b58;fill-opacity:1;fill-rule:nonzero;stroke:none" id="path64" inkscape:connector-curvature="0"/><path d="m 3020.82,302.73 h 20.69 c 9.9,0 14.7,8.551 14.7,17.997 0,7.804 -3.9,16.5 -14.55,16.5 h -20.84 z m 0,-11.996 v -49.8 h -13.81 V 349.23 h 37.35 c 19.2,0 25.95,-13.503 25.95,-27 0,-12.753 -7.05,-22.5 -19.81,-24.75 v -0.296 c 12.46,-1.954 16.96,-6.153 17.71,-27.903 0.14,-4.648 1.65,-21.601 3.75,-28.347 h -14.41 c -3.89,7.5 -2.98,21.601 -4.2,35.996 -1.04,13.203 -11.69,13.804 -16.34,13.804 h -16.19" style="fill:#0e2b58;fill-opacity:1;fill-rule:nonzero;stroke:none" id="path66" inkscape:connector-curvature="0"/><path d="m 1469.19,179.379 c 0.16,6.148 -0.3,12.301 -3.15,15.75 -2.85,3.449 -9.3,4.652 -12.15,4.652 -11.39,0 -15.9,-6.898 -16.35,-8.402 -0.45,-1.199 -3.15,-3.899 -3.15,-22.5 v -28.945 c 0,-26.543 8.71,-29.7 19.36,-29.7 4.19,0 16.94,1.496 17.09,22.649 h 14.25 c 0.6,-34.1994 -23.55,-34.1994 -30.6,-34.1994 -13.49,0 -34.2,0.8984 -34.2,42.8984 v 30.598 c 0,30.597 13.5,39.3 34.8,39.3 21.45,0 29.7,-11.097 28.35,-32.101 h -14.25" style="fill:#0e2b58;fill-opacity:1;fill-rule:nonzero;stroke:none" id="path68" inkscape:connector-curvature="0"/><path d="m 1558.77,139.934 v 36.593 c 0,22.653 -15.6,23.399 -19.95,23.399 -4.35,0 -19.94,-0.746 -19.94,-23.399 v -36.593 c 0,-23.704 6.9,-29.7 19.94,-29.7 13.06,0 19.95,5.996 19.95,29.7 z m -53.99,0.605 v 35.539 c 0,21.602 11.09,35.402 34.04,35.402 22.95,0 34.05,-13.8 34.05,-35.402 v -35.539 c 0,-30 -11.1,-41.8554 -34.05,-41.8554 -22.95,0 -34.04,11.8554 -34.04,41.8554" style="fill:#0e2b58;fill-opacity:1;fill-rule:nonzero;stroke:none" id="path70" inkscape:connector-curvature="0"/><path d="m 1608.53,100.93 h -12.9 v 108.3 h 22.35 l 27.3,-90.898 h 0.3 l 27.6,90.898 h 22.8 v -108.3 h -13.8 v 96.297 h -0.3 l -30.3,-96.297 h -13.05 l -29.7,96.297 h -0.3 V 100.93" style="fill:#0e2b58;fill-opacity:1;fill-rule:nonzero;stroke:none" id="path72" inkscape:connector-curvature="0"/><path d="m 1734.2,160.637 h 15.15 c 5.7,0 19.2,1.492 19.2,18.441 0,16.504 -12.3,18.149 -15.3,18.149 h -19.05 z m -13.8,-59.707 v 108.3 h 32.1 c 14.55,0 30.15,-5.402 30.15,-30.898 0,-24.602 -19.2,-29.699 -30.3,-29.699 H 1734.2 V 100.93 h -13.8" style="fill:#0e2b58;fill-opacity:1;fill-rule:nonzero;stroke:none" id="path74" inkscape:connector-curvature="0"/><path d="m 1802.18,209.23 h 13.8 v -69.296 c 0,-23.704 7.2,-29.7 20.25,-29.7 13.05,0 20.24,5.996 20.24,29.7 v 69.296 h 13.8 v -68.691 c 0,-30 -11.1,-41.8554 -34.04,-41.8554 -22.95,0 -34.05,11.8554 -34.05,41.8554 v 68.691" style="fill:#0e2b58;fill-opacity:1;fill-rule:nonzero;stroke:none" id="path76" inkscape:connector-curvature="0"/><path d="m 1958.14,209.23 v -12.003 h -28.49 V 100.93 h -13.8 v 96.297 h -28.5 v 12.003 h 70.79" style="fill:#0e2b58;fill-opacity:1;fill-rule:nonzero;stroke:none" id="path78" inkscape:connector-curvature="0"/><path d="m 1998.78,196.48 h -0.3 l -16.95,-57.75 h 34.65 z m -8.4,12.75 h 17.55 l 35.25,-108.3 h -15.45 l -7.8,25.8 h -41.85 l -8.09,-25.8 h -13.95 l 34.34,108.3" style="fill:#0e2b58;fill-opacity:1;fill-rule:nonzero;stroke:none" id="path80" inkscape:connector-curvature="0"/><path d="m 2111.95,209.23 v -12.003 h -28.49 V 100.93 h -13.8 v 96.297 h -28.5 v 12.003 h 70.79" style="fill:#0e2b58;fill-opacity:1;fill-rule:nonzero;stroke:none" id="path82" inkscape:connector-curvature="0"/><path d="m 2143.86,100.93 h -13.8 v 108.3 h 13.8 v -108.3" style="fill:#0e2b58;fill-opacity:1;fill-rule:nonzero;stroke:none" id="path84" inkscape:connector-curvature="0"/><path d="m 2221.25,139.934 v 36.593 c 0,22.653 -15.61,23.399 -19.96,23.399 -4.34,0 -19.95,-0.746 -19.95,-23.399 v -36.593 c 0,-23.704 6.91,-29.7 19.95,-29.7 13.06,0 19.96,5.996 19.96,29.7 z m -54,0.605 v 35.539 c 0,21.602 11.09,35.402 34.04,35.402 22.95,0 34.06,-13.8 34.06,-35.402 v -35.539 c 0,-30 -11.11,-41.8554 -34.06,-41.8554 -22.95,0 -34.04,11.8554 -34.04,41.8554" style="fill:#0e2b58;fill-opacity:1;fill-rule:nonzero;stroke:none" id="path86" inkscape:connector-curvature="0"/><path d="m 2332.63,209.23 v -108.3 h -18.9 l -42.75,93.898 h -0.3 V 100.93 h -12.3 v 108.3 h 19.51 l 42.14,-92.695 h 0.3 v 92.695 h 12.3" style="fill:#0e2b58;fill-opacity:1;fill-rule:nonzero;stroke:none" id="path88" inkscape:connector-curvature="0"/><path d="m 2393.13,196.48 h -0.3 l -16.96,-57.75 h 34.65 z m -8.41,12.75 h 17.56 l 35.24,-108.3 h -15.44 l -7.81,25.8 h -41.84 l -8.1,-25.8 h -13.94 l 34.33,108.3" style="fill:#0e2b58;fill-opacity:1;fill-rule:nonzero;stroke:none" id="path90" inkscape:connector-curvature="0"/><path d="m 2454.9,100.93 v 108.3 h 13.8 v -96.289 h 39.75 V 100.93 h -53.55" style="fill:#0e2b58;fill-opacity:1;fill-rule:nonzero;stroke:none" id="path92" inkscape:connector-curvature="0"/><path d="m 2565.89,112.941 h 13.05 c 19.2,0 26.25,7.188 26.25,32.391 v 21.906 c 0,21.895 -6.75,29.989 -21.15,29.989 h -18.15 z m -13.8,96.289 h 33.3 c 13.8,0 23.71,-4.953 29.1,-16.5 4.35,-9.152 4.8,-30.746 4.8,-34.203 0,-23.097 -2.1,-36.445 -6.6,-43.644 -5.85,-9.305 -16.8,-13.953 -35.7,-13.953 h -24.9 v 108.3" style="fill:#0e2b58;fill-opacity:1;fill-rule:nonzero;stroke:none" id="path94" inkscape:connector-curvature="0"/><path d="m 2656.24,100.93 h -13.8 v 108.3 h 13.8 v -108.3" style="fill:#0e2b58;fill-opacity:1;fill-rule:nonzero;stroke:none" id="path96" inkscape:connector-curvature="0"/><path d="m 2691.36,133.184 v -3.153 c 0,-14.699 9.31,-19.347 18.16,-19.347 10.94,0 19.34,4.648 19.34,17.55 0,24.004 -48.59,21.297 -48.59,53.848 0,19.199 13.65,29.398 31.8,29.398 19.8,0 30.89,-9.601 30,-31.652 h -14.4 c 0.15,11.852 -3.6,19.649 -16.66,19.649 -8.24,0 -16.64,-4.2 -16.64,-15.899 0,-23.84 48.59,-20.402 48.59,-54.738 0,-22.813 -15.74,-30.1564 -33.59,-30.1564 -31.95,-0.293 -31.95,24.1484 -31.65,34.5004 h 13.64" style="fill:#0e2b58;fill-opacity:1;fill-rule:nonzero;stroke:none" id="path98" inkscape:connector-curvature="0"/><path d="m 2811.77,179.379 c 0.16,6.148 -0.3,12.301 -3.14,15.75 -2.85,3.449 -9.31,4.652 -12.16,4.652 -11.4,0 -15.9,-6.898 -16.35,-8.402 -0.45,-1.199 -3.15,-3.899 -3.15,-22.5 v -28.945 c 0,-26.543 8.71,-29.7 19.35,-29.7 4.2,0 16.96,1.496 17.1,22.649 h 14.25 c 0.61,-34.1994 -23.55,-34.1994 -30.6,-34.1994 -13.5,0 -34.2,0.8984 -34.2,42.8984 v 30.598 c 0,30.597 13.5,39.3 34.8,39.3 21.45,0 29.71,-11.097 28.35,-32.101 h -14.25" style="fill:#0e2b58;fill-opacity:1;fill-rule:nonzero;stroke:none" id="path100" inkscape:connector-curvature="0"/><path d="m 2901.35,139.934 v 36.593 c 0,22.653 -15.59,23.399 -19.95,23.399 -4.35,0 -19.94,-0.746 -19.94,-23.399 v -36.593 c 0,-23.704 6.89,-29.7 19.94,-29.7 13.05,0 19.95,5.996 19.95,29.7 z m -53.99,0.605 v 35.539 c 0,21.602 11.09,35.402 34.04,35.402 22.95,0 34.04,-13.8 34.04,-35.402 v -35.539 c 0,-30 -11.09,-41.8554 -34.04,-41.8554 -22.95,0 -34.04,11.8554 -34.04,41.8554" style="fill:#0e2b58;fill-opacity:1;fill-rule:nonzero;stroke:none" id="path102" inkscape:connector-curvature="0"/><path d="m 2977.06,100.93 h -16.5 l -31.36,108.3 h 15 l 24.76,-95.246 h 0.29 l 25.35,95.246 h 14.11 l -31.65,-108.3" style="fill:#0e2b58;fill-opacity:1;fill-rule:nonzero;stroke:none" id="path104" inkscape:connector-curvature="0"/><path d="m 3025.85,100.93 v 108.3 h 55.81 v -12.003 h -42.02 v -34.793 h 39.01 V 150.43 h -39.01 v -37.489 h 42.91 V 100.93 h -56.7" style="fill:#0e2b58;fill-opacity:1;fill-rule:nonzero;stroke:none" id="path106" inkscape:connector-curvature="0"/><path d="m 3115.42,162.727 h 20.71 c 9.9,0 14.7,8.554 14.7,18 0,7.804 -3.9,16.5 -14.55,16.5 h -20.86 z m 0,-11.993 V 100.93 h -13.78 v 108.3 h 37.34 c 19.2,0 25.95,-13.503 25.95,-27 0,-12.746 -7.05,-22.492 -19.8,-24.75 v -0.3 c 12.44,-1.953 16.95,-6.153 17.7,-27.891 0.15,-4.648 1.65,-21.601 3.75,-28.359 h -14.4 c -3.9,7.5 -3.01,21.601 -4.2,35.996 -1.05,13.203 -11.7,13.808 -16.34,13.808 h -16.22" style="fill:#0e2b58;fill-opacity:1;fill-rule:nonzero;stroke:none" id="path108" inkscape:connector-curvature="0"/><path d="m 3234.64,209.23 h 13.96 l -29.55,-67.05 v -41.25 h -13.8 v 41.25 l -29.1,67.05 h 15.45 l 21.15,-52.343 21.89,52.343" style="fill:#0e2b58;fill-opacity:1;fill-rule:nonzero;stroke:none" id="path110" inkscape:connector-curvature="0"/><path d="m 3336.05,188.828 c 0,7.5 -4.5,12.149 -11.86,12.149 -6.89,0 -11.99,-4.946 -11.99,-12.149 0,-7.5 7.8,-13.797 11.85,-19.5 5.1,4.5 12,11.102 12,19.5 z M 3320,154.777 c -9.46,-6.445 -17.55,-12.148 -17.55,-24.746 0,-11.699 9.3,-19.797 22.19,-19.797 9.75,0 16.51,2.844 22.05,10.793 z m 34.05,-42.746 c -8.25,-10.047 -17.4,-13.3474 -30.15,-13.3474 -19.5,0 -35.55,10.0464 -35.55,31.0544 0,17.852 10.2,24.442 24,32.989 -6.3,7.207 -14.25,17.253 -14.25,27.304 0,15.746 13.2,21.449 26.7,21.449 13.8,0 25.35,-6.601 25.35,-21.898 0,-11.402 -9.45,-21.445 -18.15,-28.801 l 21.14,-26.843 c 2.11,7.05 2.11,14.55 2.11,30.742 h 12.29 c 0,-23.242 -2.39,-33.301 -6.59,-40.5 l 17.39,-23.25 h -15.59 l -8.7,11.101" style="fill:#0e2b58;fill-opacity:1;fill-rule:nonzero;stroke:none" id="path112" inkscape:connector-curvature="0"/><path d="m 3422.75,100.93 v 108.3 h 55.8 v -12.003 h -42.01 v -34.793 h 39 V 150.43 h -39 v -37.489 h 42.91 V 100.93 h -56.7" style="fill:#0e2b58;fill-opacity:1;fill-rule:nonzero;stroke:none" id="path114" inkscape:connector-curvature="0"/><path d="m 3573.3,209.23 v -108.3 h -18.9 l -42.74,93.898 h -0.31 V 100.93 h -12.29 v 108.3 h 19.49 l 42.15,-92.695 h 0.3 v 92.695 h 12.3" style="fill:#0e2b58;fill-opacity:1;fill-rule:nonzero;stroke:none" id="path116" inkscape:connector-curvature="0"/><path d="m 3649.16,180.277 c 0,12.75 -5.26,19.649 -19.2,19.649 -4.36,0 -19.96,-0.746 -19.96,-23.399 v -36.593 c 0,-23.704 6.9,-29.7 19.96,-29.7 9.89,0 16.49,2.707 19.34,4.797 v 32.403 h -19.95 v 11.992 h 33.75 v -52.637 c -8.85,-4.805 -19.2,-8.1054 -33.14,-8.1054 -22.95,0 -34.06,11.8554 -34.06,41.8554 v 35.539 c 0,21.602 11.11,35.402 34.06,35.402 23.39,0 34.49,-8.55 33.59,-31.203 h -14.39" style="fill:#0e2b58;fill-opacity:1;fill-rule:nonzero;stroke:none" id="path118" inkscape:connector-curvature="0"/><path d="m 3701.36,100.93 h -13.79 v 108.3 h 13.79 v -108.3" style="fill:#0e2b58;fill-opacity:1;fill-rule:nonzero;stroke:none" id="path120" inkscape:connector-curvature="0"/><path d="m 3800,209.23 v -108.3 h -18.91 l -42.76,93.898 h -0.29 V 100.93 h -12.3 v 108.3 h 19.5 l 42.15,-92.695 h 0.3 V 209.23 H 3800" style="fill:#0e2b58;fill-opacity:1;fill-rule:nonzero;stroke:none" id="path122" inkscape:connector-curvature="0"/><path d="m 3823.75,100.93 v 108.3 h 55.78 v -12.003 h -42 v -34.793 h 39.01 V 150.43 h -39.01 v -37.489 h 42.89 V 100.93 h -56.67" style="fill:#0e2b58;fill-opacity:1;fill-rule:nonzero;stroke:none" id="path124" inkscape:connector-curvature="0"/><path d="m 3899.66,100.93 v 108.3 h 55.8 v -12.003 h -41.99 v -34.793 h 39.01 V 150.43 h -39.01 v -37.489 h 42.89 V 100.93 h -56.7" style="fill:#0e2b58;fill-opacity:1;fill-rule:nonzero;stroke:none" id="path126" inkscape:connector-curvature="0"/><path d="m 3989.23,162.727 h 20.71 c 9.9,0 14.7,8.554 14.7,18 0,7.804 -3.9,16.5 -14.55,16.5 h -20.86 z m 0,-11.993 V 100.93 h -13.79 v 108.3 h 37.35 c 19.2,0 25.96,-13.503 25.96,-27 0,-12.746 -7.06,-22.492 -19.81,-24.75 v -0.3 c 12.44,-1.953 16.95,-6.153 17.7,-27.891 0.15,-4.648 1.66,-21.601 3.75,-28.359 h -14.4 c -3.91,7.5 -3.01,21.601 -4.2,35.996 -1.05,13.203 -11.7,13.808 -16.35,13.808 h -16.21" style="fill:#0e2b58;fill-opacity:1;fill-rule:nonzero;stroke:none" id="path128" inkscape:connector-curvature="0"/><path d="m 4074.55,100.93 h -13.81 v 108.3 h 13.81 v -108.3" style="fill:#0e2b58;fill-opacity:1;fill-rule:nonzero;stroke:none" id="path130" inkscape:connector-curvature="0"/><path d="m 4173.18,209.23 v -108.3 h -18.91 l -42.75,93.898 h -0.29 V 100.93 h -12.31 v 108.3 h 19.51 l 42.15,-92.695 h 0.29 v 92.695 h 12.31" style="fill:#0e2b58;fill-opacity:1;fill-rule:nonzero;stroke:none" id="path132" inkscape:connector-curvature="0"/><path d="m 4249.02,180.277 c 0,12.75 -5.24,19.649 -19.2,19.649 -4.34,0 -19.94,-0.746 -19.94,-23.399 v -36.593 c 0,-23.704 6.89,-29.7 19.94,-29.7 9.9,0 16.5,2.707 19.35,4.797 v 32.403 h -19.94 v 11.992 h 33.75 v -52.637 c -8.84,-4.805 -19.2,-8.1054 -33.16,-8.1054 -22.95,0 -34.04,11.8554 -34.04,41.8554 v 35.539 c 0,21.602 11.09,35.402 34.04,35.402 23.42,0 34.51,-8.55 33.61,-31.203 h -14.41" style="fill:#0e2b58;fill-opacity:1;fill-rule:nonzero;stroke:none" id="path134" inkscape:connector-curvature="0"/><path d="m 1757.16,23.7695 c 0.1,-14.62887 0.1,-16.62106 7.78,-16.79684 V 3.4375 h -26.66 v 3.53516 c 6.85,0.54687 7.57,1.64062 7.67,8.49614 0.08,2.6367 0.08,5.6054 0.08,8.2031 v 23.1054 c 0,7.6563 -0.08,10.3711 -0.35,12.4415 -0.47,3.5351 -2.19,4.1796 -7.4,4.6289 v 3.4179 l 28.9,-0.0976 c 15.74,0 20.71,-7.5 20.71,-16.3477 0,-6.1719 -3.79,-14.1601 -12.58,-16.8555 l 11.31,-19.6679 c 4.08,-7.51956 6.25,-9.23831 11.4,-9.96096 V 2.1875 c -1.36,-0.09766 -2.73,-0.17578 -4.18,-0.17578 -12.03,0 -16.99,4.14062 -22.05,14.90238 l -3.53,7.5 c -3.79,8.0468 -5.04,7.539 -11.1,7.6562 z m 0,13.9063 c 1.7,-0.3516 4.14,-0.6445 5.96,-0.6445 7.25,-0.0391 12.73,5.664 13.01,10.7812 0.41,7.3828 -3.34,13.8086 -15.08,13.8086 -1.64,0 -2.64,-0.0781 -3.89,-0.3516 z m 815.54,-6.4844 v -3.4375 c -5.78,-0.332 -5.78,-1.9922 -5.96,-14.1016 V 8.86719 c -4.92,-3.08594 -12.03,-7.5 -24.55,-7.5 -21.97,0 -32.46,16.64061 -32.46,33.35941 0,20.4297 13.81,33.7304 31.17,33.7304 10.9,0 17.17,-4.082 22.37,-7.2461 l 3.34,3.7891 0.48,-19.9609 -2.59,-0.4688 c -1.31,3.7891 -3.26,8.1641 -8.07,12.9883 -2.13,2.0703 -6.19,4.7461 -12.64,4.7461 -11.13,0 -20.39,-9.3945 -20.39,-27.7539 0,-14.668 7.25,-27.22658 19.65,-27.22658 7.13,0 10.76,4.96098 11.12,5.35158 1.13,1.7187 1.4,3.2422 1.28,6.0351 -0.29,8.1446 -1.38,8.3204 -8.45,9.043 v 3.4375 z M 1727.51,3.4375 c 0,4.60938 0.81,12.1875 1.35,16.543 h -3.06 c -2.21,-11.40628 -8.62,-10.83987 -17.86,-10.83987 -8.49,0 -10.19,2.26567 -10.19,6.42577 v 17.832 h 6.85 c 7.88,0 10.14,-0.6836 10.14,-7.8125 h 3.07 v 21.0547 h -3.07 c -0.62,-5.664 -1.8,-7.5586 -10.04,-7.5586 h -6.95 v 22.5 h 7.83 c 10.88,0 14.77,-0.8007 16.23,-9.4726 h 2.91 l -0.41,15.1562 h -45.49 v -3.4179 c 4.59,-0.4688 6.59,-0.7422 7.23,-3.75 0.45,-1.9727 0.51,-8.9844 0.51,-11.5235 V 26.1328 c 0,-1.7187 -0.06,-9.3945 -0.14,-10.9375 -0.17,-6.95311 -1.01,-7.61717 -7.6,-8.22264 V 3.4375 Z m 247.91,0 v 3.45703 c 5,0.50781 6.9,0.6836 8.15,1.97266 1.46,1.42581 1.46,3.04691 1.52,10.01951 v 11.211 l -16.93,26.3086 c -4.63,6.875 -4.71,7.0507 -10.84,7.4023 v 3.5352 h 33.2 v -3.5352 c -6.68,-0.1758 -9.67,-0.3516 -9.67,-3.418 0,-1.7187 1.18,-3.7109 2.82,-6.4258 l 9.74,-15.9765 9.03,15.8984 c 1.62,3.1836 2.54,5.0391 2.54,6.5039 0,3.0664 -2.62,3.1446 -7.07,3.418 v 3.5352 h 24.92 v -3.5352 c -6.43,-0.1758 -8.3,-2.0703 -15.59,-13.9844 L 1997.3,33.1836 V 19.8828 c 0,-11.56249 0.06,-12.48046 9.55,-12.98827 V 3.4375 Z m -302.63,63.8281 v -3.457 c -6.13,-0.8984 -6.99,-2.5977 -12.23,-15.2734 L 1641.13,2.1875 h -3.44 l -17.44,47.0703 c -4.34,12.1289 -4.9,13.5547 -11.31,14.5508 v 3.457 h 30.29 v -3.457 c -5.15,-0.1758 -8.49,-0.3516 -8.49,-4.0625 0,-1.7969 0.45,-3.3398 2.18,-8.6719 l 11.12,-32.4609 13.01,33.5547 c 0.8,2.2461 1.89,5.1562 1.89,6.7578 0,4.6094 -4.51,4.8242 -8.5,4.8828 v 3.457 z m -226.25,0 v -3.457 c -8.5,-0.6055 -8.5,-0.8984 -8.58,-14.4531 V 34.375 c 0,-7.8125 0.16,-14.4922 4.26,-20.4687 3.26,-4.74614 8.81,-5.35161 11.6,-5.35161 9.12,0 14.16,4.72661 16.35,12.26561 1.8,5.9375 1.88,17.1485 1.88,24.5703 0,2.3438 0,9.961 -0.08,11.9922 -0.37,5.8203 -3.36,5.9961 -9.06,6.4258 v 3.457 h 24.31 v -3.457 c -5.96,0.1172 -7.22,-1.2305 -7.58,-7.5977 -0.09,-1.5039 -0.82,-19.2382 -0.89,-21.9531 -0.2,-4.8437 -0.47,-9.668 -1.55,-14.2773 -4.33,-17.168 -21.05,-18.08597 -25.49,-18.08597 -3.53,0 -10.76,0.54688 -16.73,4.53125 -9.5,6.42582 -9.59,15.99612 -9.59,26.28902 v 14.4727 c -0.08,6.875 -0.08,9.9609 -0.26,11.582 -0.55,3.9844 -2.54,4.7657 -7.32,5.0391 v 3.457 z M 1906.5,3.4375 v 2.71484 c 5.86,0.09766 7.5,2.2461 7.5,7.30466 v 47.0313 h -7.95 c -7.21,0 -12,0.293 -12.57,-11.1133 h -3.32 l 0.53,17.8906 h 57.98 l 0.52,-17.8906 h -3.36 c -0.52,11.4063 -5.31,11.1133 -12.53,11.1133 h -7.93 V 13.457 c 0,-5.05856 1.62,-7.207 7.48,-7.30466 V 3.4375 Z m -104.96,19.8828 3.26,0.3516 c 3.52,-10.3906 9.37,-15.97659 18.96,-15.97659 6.78,0 12.77,2.89059 12.77,9.76559 0,7.2461 -6.96,10.0977 -10.05,11.3672 -2.54,1.0157 -5.23,1.836 -7.77,2.8321 -5.24,1.8945 -15.1,5.9375 -15.1,18.3398 0,11.9141 9.39,18.6328 20.33,18.6328 4.26,0 9.23,-0.918 14.68,-4.375 l 3.88,2.793 2.08,-18.9453 -3.18,-0.625 c -1.09,4.1601 -1.92,6.0742 -4.42,9.4336 -3.07,3.9843 -7.41,5.8398 -12.49,5.8398 -6.78,0 -10.74,-3.2617 -10.74,-8.3398 0,-7.5782 7.5,-10.1368 14.62,-12.4414 3.64,-1.211 6.62,-2.2071 9.21,-3.711 5.07,-3.0078 9.25,-8.5937 9.25,-16.2695 0,-11.0547 -9.07,-20.17579 -22.52,-20.17579 -8.67,0 -14.02,3.4375 -16.52,5.07812 l -5.31,3.84767 z M 1495.37,3.4375 v 3.45703 c 5.25,0.25391 7.22,0.35156 7.96,3.96487 0.9,4.2578 1.18,42.1094 1.25,48.7109 -3.53,3.2422 -4.98,3.8867 -9.21,4.2383 v 3.457 h 19.16 c 5.33,-7.5976 6.5,-9.3164 15.91,-20.9765 l 17.8,-22.0508 V 52.793 c -0.08,10.1172 -0.35,10.664 -10.49,11.0156 v 3.457 h 25.12 v -3.457 c -6.96,-0.0586 -7.56,-1.5234 -7.64,-11.9141 l -0.94,-49.27731 h -3.77 l -5.7,7.14844 c -2.91,3.63277 -5.78,7.22657 -8.69,10.76167 l -25.2,31.1133 V 18.5352 c 0,-10.29301 0.71,-10.66411 10.49,-11.64067 V 3.4375 Z m 358.95,0 v 3.45703 c 6.21,0.80078 7.5,1.50391 7.56,8.22267 v 8.125 25.8398 c -0.06,13.3008 -0.06,13.6719 -7.56,14.7266 v 3.457 h 26.47 v -3.457 c -7.52,-0.7227 -7.52,-1.0547 -7.52,-14.7266 V 23.3203 c 0,-2.2461 0.09,-9.414 0.29,-11.289 0.45,-3.88677 2.25,-4.78521 7.23,-5.13677 V 3.4375 Z m -281.26,0 v 3.45703 c 6.25,0.80078 7.5,1.50391 7.6,8.22267 v 8.125 25.8398 c -0.1,13.3008 -0.1,13.6719 -7.6,14.7266 v 3.457 h 26.51 v -3.457 c -7.49,-0.7227 -7.49,-1.0547 -7.49,-14.7266 V 23.3203 c 0,-2.2461 0.06,-9.414 0.28,-11.289 0.43,-3.88677 2.24,-4.78521 7.21,-5.13677 V 3.4375 Z m 548.67,3.08594 V 3.00781 h 26.43 v 3.51563 c -6.6,0.625 -7.42,1.25 -7.62,8.22266 l 0.06,18.2031 h 7.07 c 7.13,0 10.92,-0.6836 11.37,-7.8125 h 3.08 v 21.0547 h -3.08 c -0.35,-6.875 -2.25,-7.5586 -10.02,-7.5586 h -8.42 v 22.1094 c 2.29,0.293 3.54,0.3516 7.6,0.3516 12.5,0 16.5,0.0585 18.2,-9.9219 h 3.15 l -1.02,15.625 h -46.8 v -3.418 c 4.59,-0.4687 6.6,-0.7422 7.25,-3.7109 0.43,-1.9922 0.53,-9.0235 0.53,-11.5625 V 25.7031 c 0,-1.7383 -0.12,-9.4336 -0.22,-10.957 -0.17,-6.97266 -0.96,-7.59766 -7.56,-8.22266 z m -38.3,0.72265 c 3.64,0.09766 8.71,1.89454 12.66,7.89061 4.49,6.9141 5.43,13.2813 5.17,21.6016 -0.27,8.2031 -2.55,15.2734 -7.24,20.293 -2.05,2.1875 -6.08,5.4101 -11.43,5.2539 -5.31,0 -9.26,-3.3594 -11.25,-5.6055 -4.53,-5.1367 -6.6,-12.2852 -6.6,-20.5078 0,-8.3203 1.11,-14.6485 5.82,-21.4258 4.14,-5.87891 9.26,-7.50001 12.87,-7.50001 z m 31.9,27.73441 c 0,-22.0703 -15.04,-33.63284 -31.96,-33.63284 -18.57,0 -33.06,13.39844 -33.06,33.73044 0,17.4219 11.7,33.1836 32.19,33.086 19.33,-0.0782 32.83,-13.8086 32.83,-33.1836 z M 2647.72,3.00781 v 3.41797 c 5.25,0.29297 7.25,0.35156 7.97,3.98442 0.9,4.2382 1.17,42.0898 1.25,48.7109 -3.54,3.2617 -4.96,3.9062 -9.22,4.2578 v 3.418 h 19.18 c 5.33,-7.5977 6.48,-9.2969 15.9,-20.9571 l 17.81,-22.0507 v 28.5742 c -0.08,10.0976 -0.35,10.664 -10.49,11.0156 v 3.418 h 25.16 v -3.418 c -6.99,-0.0976 -7.6,-1.543 -7.68,-11.9336 l -0.92,-49.2578 h -3.82 l -5.69,7.12891 c -2.87,3.59379 -5.78,7.24609 -8.67,10.76169 l -25.21,31.0938 V 18.1055 c 0,-10.33206 0.7,-10.70316 10.48,-11.67972 V 3.00781 Z m -394.36,0 v 3.41797 c 8.03,0.54688 8.03,0.89844 8.13,12.73442 V 51.25 L 2239.17,2.1875 h -5.6 l -20.51,49.7266 -0.47,-37.5196 c 0,-6.24997 0.74,-7.42184 7.52,-7.96872 V 3.00781 h -22.15 v 3.41797 c 5.14,0.29297 7.17,0.97656 7.48,5.31252 0.2,1.7187 0.47,7.0898 0.55,10.6055 l 0.92,26.7382 c 0.08,2.0899 0.08,5.1563 0.08,7.4219 0,6.3086 -1.25,6.7774 -6.96,6.875 v 3.418 h 20.08 l 19.89,-48.4571 21.86,48.4571 h 19.43 v -3.7696 c -7.59,-0.4492 -7.67,-1.289 -7.59,-11.2109 V 25.5078 c 0,-4.375 0.07,-9.7656 0.35,-13.0273 0.37,-4.70706 2.19,-5.58597 7.24,-6.05472 V 3.00781 Z m 40.2,0 v 3.41797 c 6.25,0.82031 7.5,1.54297 7.6,8.22262 v 8.1446 25.8593 c -0.1,13.2618 -0.1,13.6329 -7.6,14.7266 v 3.418 h 26.48 v -3.418 c -7.5,-0.7422 -7.5,-1.0937 -7.5,-14.7266 V 22.8711 c 0,-2.2656 0.12,-9.4141 0.3,-11.2891 0.43,-3.88669 2.24,-4.80466 7.2,-5.15622 V 3.00781 Z m 181.8,0 v 3.41797 c 6.25,0.82031 7.5,1.54297 7.59,8.22262 v 8.1446 25.8593 c -0.09,13.2618 -0.09,13.6329 -7.59,14.7266 v 3.418 h 26.54 v -3.418 c -7.5,-0.7422 -7.5,-1.0937 -7.5,-14.7266 V 22.8711 c 0,-2.2656 0.08,-9.4141 0.25,-11.2891 0.45,-3.88669 2.27,-4.80466 7.25,-5.15622 V 3.00781 Z m -78.75,0 v 3.41797 c 7.24,0.625 7.32,2.1875 7.32,8.32032 0.1,2.2461 0.1,4.5312 0.1,6.7773 v 26.7579 c 0,4.1601 0,8.3203 -0.29,10.3125 -0.36,3.789 -2.17,4.3164 -7.13,4.7851 v 3.418 h 27.34 v -3.418 c -5.35,-0.5664 -7.34,-0.7422 -7.97,-4.2578 -0.47,-2.0508 -0.53,-6.7578 -0.53,-10.5859 v -8.7891 c 5.49,-0.293 9.34,-0.4297 14.69,-0.4297 5.41,0 9.69,0.1367 15.14,0.4297 v 10.7031 c -0.1,11.6406 -0.18,12.1289 -8.87,12.9297 v 3.418 h 27.68 v -3.418 c -7.42,-0.918 -7.42,-0.9961 -7.42,-13.125 V 23.3203 c 0,-2.5 0.07,-10.5664 0.37,-12.4609 0.45,-3.33987 2.34,-3.96487 7.05,-4.43362 V 3.00781 h -27.68 v 3.41797 c 6.41,0.72266 8.13,0.89844 8.69,5.31252 0.18,1.8359 0.18,4.2578 0.18,8.8672 v 11.7187 c -5.06,0.1758 -9.28,0.4492 -14.53,0.4492 -5.51,0 -9.81,-0.1757 -15.3,-0.4492 V 20.6055 c 0.06,-13.28128 0.26,-13.28128 8.5,-14.17972 V 3.00781 Z M 2385.86,17.168 c -2.83,-4.5899 -9.61,-15.89847 -27.22,-15.89847 -19.22,0 -31.66,14.17967 -31.66,32.81247 0,17.2657 10.54,34.2578 32.09,34.2578 11.35,0 17.36,-4.7656 21.07,-7.6757 l 4.34,3.9648 0.35,-19.3555 -2.83,-0.5273 c -1.12,3.7109 -2.74,6.6992 -6.9,11.2109 -1.95,2.0703 -6.66,6.25 -13.34,6.25 -11.54,0 -20.62,-9.414 -20.62,-25.9765 0,-13.9844 7.48,-27.18753 22.22,-27.18753 11.16,0 15.38,6.23043 18.7,11.01563 z m 222.15,37.0312 -9.37,-26.4453 H 2617 Z m 5.74,-51.19139 v 3.41797 c 4.34,0.29297 7.68,0.625 7.68,4.16012 0,1.2696 -0.39,2.6172 -0.74,3.8086 l -1.9,6.4844 h -22.48 l -1.99,-5.4883 c -0.43,-1.3867 -0.82,-2.6367 -0.82,-3.9843 0,-4.51177 4.79,-4.80474 8.67,-4.98052 V 3.00781 h -26.29 v 3.41797 c 6.7,0.29297 8.87,1.6211 11.31,8.32032 l 17.27,47.3437 -1,1.543 c 7.38,2.4219 9.47,3.5352 12.66,5.8789 1.25,-4.3164 1.42,-4.8828 2.85,-9.414 l 14.14,-43.3594 c 2.52,-7.69533 3.71,-9.58986 10.45,-10.31252 V 3.00781 h -29.81" style="fill:#0e2b58;fill-opacity:1;fill-rule:nonzero;stroke:none" id="path136" inkscape:connector-curvature="0"/></g></svg>